<?xml version="1.0" standalone="no"?><!DOCTYPE svg PUBLIC "-//W3C//DTD SVG 1.1//EN" "http://www.w3.org/Graphics/SVG/1.1/DTD/svg11.dtd"><svg t="1630163955329" class="icon" viewBox="0 0 1024 1024" version="1.1" xmlns="http://www.w3.org/2000/svg" p-id="22364" xmlns:xlink="http://www.w3.org/1999/xlink" width="16" height="16"><defs><style type="text/css"></style></defs><path d="M637.610667 680.96c-6.417067 1.2288-11.4688 4.778667-21.162667 15.086933l-7.714133 8.192c-18.158933 19.2512-33.450667 30.1056-56.5248 36.0448-26.350933 6.826667-53.998933 0.4096-76.458667-17.066666-15.428267-12.0832-72.704-69.358933-99.9424-101.853867l-18.978133-22.391467-0.682667-0.887466c-37.956267-44.714667-50.653867-60.757333-55.842133-73.045334-14.677333-34.4064-15.018667-67.3792 0-95.095466 8.3968-15.701333 21.2992-26.487467 40.482133-37.546667 2.321067-1.365333 18.978133-10.4448 22.254933-12.4928 2.2528-1.365333 3.003733-2.048 2.2528-0.8192 12.6976-21.981867 5.461333-88.814933-19.797333-149.572267-28.945067-69.905067-86.357333-122.402133-107.656533-117.077333-36.932267 9.352533-90.3168 40.618667-115.643734 69.8368-58.5728 67.584 3.618133 338.397867 157.9008 522.4448 137.762133 164.181333 363.588267 269.243733 496.981334 238.728533 30.651733-7.031467 84.3776-80.418133 88.610133-125.5424 1.570133-17.066667-47.991467-63.351467-108.270933-96.119466-49.834667-27.0336-100.1472-44.373333-119.876267-40.823467z m144.247466-4.164267c78.6432 42.734933 139.195733 99.191467 134.7584 145.954134-6.144 65.536-74.001067 158.242133-128.136533 170.5984-154.624 35.4304-398.677333-78.165333-547.566933-255.7952C72.362667 536.712533 4.232533 240.0256 83.490133 148.821333 115.9168 111.274667 178.5856 74.615467 225.416533 62.805333c53.316267-13.312 129.911467 56.661333 167.389867 147.182934 30.72 74.069333 39.594667 155.374933 16.861867 194.7648a53.521067 53.521067 0 0 1-19.182934 18.432c-4.983467 3.208533-23.210667 13.038933-24.1664 13.653333-11.605333 6.690133-18.090667 12.0832-20.8896 17.408-7.099733 13.1072-6.9632 29.832533 2.048 50.858667 2.048 4.846933 17.271467 24.029867 47.7184 60.0064l0.682667 0.8192 19.114667 22.596266c25.122133 29.969067 79.872 84.7872 92.296533 94.481067a36.6592 36.6592 0 0 0 32.085333 7.7824c11.946667-3.072 20.002133-8.8064 32.085334-21.640533l7.714133-8.192c16.520533-17.476267 29.354667-26.624 49.152-30.242134 35.4304-6.5536 93.3888 13.5168 153.531733 46.148267zM791.210667 485.5808a25.6 25.6 0 0 1-51.2-2.525867c5.051733-101.307733-72.9088-189.098667-173.397334-195.515733a25.6 25.6 0 1 1 3.2768-51.063467c128.477867 8.192 227.669333 119.876267 221.320534 249.105067z" fill="#ffffff" p-id="22365"></path><path d="M941.056 493.704533a25.6 25.6 0 1 1-51.063467-3.003733c10.8544-183.773867-130.116267-342.152533-314.299733-353.006933a25.6 25.6 0 0 1 3.003733-51.131734c212.3776 12.561067 374.920533 195.1744 362.359467 407.1424zM641.4336 476.023467a25.6 25.6 0 1 1-51.131733-3.003734 33.9968 33.9968 0 0 0-32.221867-35.6352 25.6 25.6 0 1 1 2.935467-51.063466c47.104 2.730667 83.1488 42.871467 80.418133 89.7024z" fill="#ffffff" p-id="22366"></path></svg>