<?xml version="1.0" encoding="utf-8"?>
<!-- Generator: Adobe Illustrator 24.0.0, SVG Export Plug-In . SVG Version: 6.00 Build 0)  -->
<svg version="1.1" xmlns="http://www.w3.org/2000/svg" xmlns:xlink="http://www.w3.org/1999/xlink" x="0px" y="0px"
	 viewBox="0 0 200 200" style="enable-background:new 0 0 200 200;" xml:space="preserve">
<style type="text/css">
	.st0{display:none;}
	.st1{display:inline;fill:#FFFFFF;}
	.st2{fill:#FFFFFF;}
</style>
<g id="图层_1" class="st0">
	<path class="st1" d="M127.2,76.2h63.5c5.1,0.1,9.2,4.4,9.1,9.5c0,0,0,0,0,0v104.7c0.1,5.1-4,9.4-9.1,9.5c0,0,0,0,0,0H81.9
		c-5.1-0.1-9.2-4.4-9.1-9.5c0,0,0,0,0,0v-66.6H9.2c-5.1-0.1-9.2-4.4-9.1-9.5V9.5C-0.1,4.4,4,0.1,9.2,0h108.9
		c5.1,0.1,9.2,4.4,9.1,9.5c0,0,0,0,0,0V76.2z M9.2,114.3h108.9V9.5H9.2V114.3z M133.3,111l-20,54.4h8.9l4.9-14h22.2l4.9,14h8.5
		L142.6,111H133.3L133.3,111z M129,144.4l8.7-24.7l9.2,24.7H129z M59.8,22.2h6.9v13.9h26.4v36.8h-6.9v-4.3H66.7v25.5h-6.5V68.5h-19
		v4.3h-6.9V36.1h25.9L59.8,22.2z M41.1,61.4H60V43.2H41.1V61.4z M66.7,61.4h19.5V43.2H66.7V61.4z"/>
</g>
<g id="图层_2">
	<path class="st2" d="M68.8,31.2h-9.3l-20,54.4h8.9l4.9-14h22.2l4.9,14h8.5L68.8,31.2z M55.2,64.6l8.7-24.7l9.2,24.7H55.2z"/>
	<path class="st2" d="M191.3,76.5h-63.5V9.9c0,0,0,0,0,0c0.1-5.1-4-9.4-9.1-9.5H9.7C4.5,0.4,0.5,4.7,0.6,9.9v104.7
		c-0.1,5.1,3.9,9.4,9.1,9.5h63.6v66.6c0,0,0,0,0,0c-0.1,5.1,4,9.4,9.1,9.5h108.8c0,0,0,0,0,0c5.1-0.1,9.2-4.4,9.1-9.5V86
		c0,0,0,0,0,0C200.5,80.9,196.4,76.6,191.3,76.5z M9.7,114.6V9.9h108.9v104.7H9.7z M164,158.6H158v-3.8h-17.3v22.6h-5.8v-22.6h-16.8
		v3.8h-6.1v-32.5h22.9l-0.3-12.3h6.1v12.3H164V158.6z"/>
	<rect x="118.1" y="132.5" class="st2" width="16.7" height="16.1"/>
	<rect x="140.7" y="132.5" class="st2" width="17.3" height="16.1"/>
</g>
</svg>
