<svg id="图层_1" data-name="图层 1" xmlns="http://www.w3.org/2000/svg" viewBox="0 0 32.78 32"><defs><style>.cls-1{fill:#fff;}</style></defs><title>github_white</title><path class="cls-1" d="M16.41,0a16.41,16.41,0,0,0-5.19,32c.81.16,1.11-.35,1.11-.79s0-1.68,0-3c-4.56,1-5.51-2-5.51-2A4.19,4.19,0,0,0,5,23.79c-1.49-1,.11-1,.11-1a3.44,3.44,0,0,1,2.53,1.68,3.48,3.48,0,0,0,4.78,1.36,3.47,3.47,0,0,1,1-2.2C9.78,23.25,6,21.84,6,15.54a6.39,6.39,0,0,1,1.68-4.4A6,6,0,0,1,7.8,6.79s1.38-.43,4.5,1.68a15.87,15.87,0,0,1,8.21,0C23.63,6.36,25,6.79,25,6.79a6,6,0,0,1,.16,4.35,6.25,6.25,0,0,1,1.68,4.4c0,6.3-3.83,7.68-7.49,8.09a3.91,3.91,0,0,1,1.11,3c0,2.2,0,4,0,4.51s.3,1,1.12.79A16.41,16.41,0,0,0,16.41,0Z"/><path class="cls-1" d="M6.22,23.55c0,.08-.16.11-.27.05s-.19-.16-.14-.24.17-.11.27-.06A.23.23,0,0,1,6.22,23.55Zm.65.73c-.08.08-.24,0-.32-.08s-.14-.27-.06-.35.22,0,.33.08S7,24.23,6.87,24.28Zm.65.95c-.1.08-.27,0-.35-.13s-.11-.33,0-.38.27,0,.35.13S7.63,25.15,7.52,25.23Zm.9.93c-.08.11-.27.08-.43-.06s-.19-.32-.09-.41.28-.08.44.06A.32.32,0,0,1,8.42,26.16Zm1.22.51c0,.14-.21.19-.41.14A.34.34,0,0,1,9,26.48c0-.13.22-.19.41-.13S9.67,26.54,9.64,26.67Zm1.33.11c0,.14-.16.25-.35.25s-.35-.11-.35-.25.16-.24.35-.24S11,26.65,11,26.78Zm1.25-.22c0,.14-.11.28-.3.3s-.35-.05-.38-.19.11-.27.3-.3S12.2,26.43,12.22,26.56Z"/></svg>